<svg width="32" height="32" viewBox="0 0 32 32" fill="none" xmlns="http://www.w3.org/2000/svg">
<path fill-rule="evenodd" clip-rule="evenodd" d="M16 30C23.732 30 30 23.732 30 16C30 8.26801 23.732 2 16 2C8.26801 2 2 8.26801 2 16C2 23.732 8.26801 30 16 30ZM22.8093 9.25624C22.5458 8.96781 22.1076 8.9564 21.8305 9.23077L16.0037 15.0014L10.1691 9.23045C9.89193 8.95627 9.45373 8.96797 9.19039 9.25658L9.15463 9.29891C8.92872 9.58823 8.95148 10.0145 9.21548 10.2756L14.9991 15.9961L9.21516 21.7246C8.93813 21.999 8.92717 22.4553 9.19069 22.7437L9.22949 22.783C9.49558 23.0326 9.90561 23.0305 10.1695 22.7692L16.0043 16.9902L21.5232 22.4491C21.8004 22.7233 22.2386 22.7116 22.5019 22.423L22.5377 22.3807C22.7636 22.0914 22.7408 21.6651 22.4768 21.404L17.0086 15.9955L22.7848 10.2753C23.0619 10.0009 23.0728 9.54468 22.8093 9.25624Z" fill="black"/>
</svg>
