<svg width="32" height="32" viewBox="0 0 32 32" fill="none" xmlns="http://www.w3.org/2000/svg">
<path fill-rule="evenodd" clip-rule="evenodd" d="M16 30C23.732 30 30 23.732 30 16C30 8.26801 23.732 2 16 2C8.26801 2 2 8.26801 2 16C2 23.732 8.26801 30 16 30ZM8.27985 15.6431L13.2868 20.2809L23.7203 10.4788C23.9654 10.2505 24.3517 10.2613 24.5833 10.503C24.8148 10.7446 24.8038 11.1257 24.5588 11.354L13.6462 21.5212C13.4108 21.7405 13.0428 21.7404 12.8075 21.5211L7.44109 16.518C7.19609 16.2896 7.18524 15.9086 7.41686 15.667C7.64847 15.4254 8.03485 15.4147 8.27985 15.6431Z" fill="black"/>
</svg>
